name D:\school\WTK\thesis\model\3dpredictsim\Results\batch_windlass\Pog_s1_tmt_bCst_d05_k800_WL10_ig24_pas.mot
datacolumns 128
datarows 4
range 0.00000000 0.03234235
endheader
time	pelvis_tilt	pelvis_list	pelvis_rotation	pelvis_tx	pelvis_ty	pelvis_tz	hip_flexion_l	hip_adduction_l	hip_rotation_l	hip_flexion_r	hip_adduction_r	hip_rotation_r	knee_angle_l	knee_angle_r	ankle_angle_l	ankle_angle_r	subtalar_angle_l	subtalar_angle_r	tmt_angle_l	tmt_angle_r	mtp_angle_l	mtp_angle_r	lumbar_extension	lumbar_bending	lumbar_rotation	arm_flex_l	arm_add_l	arm_rot_l	arm_flex_r	arm_add_r	arm_rot_r	elbow_flex_l	elbow_flex_r	pro_sup_l	pro_sup_r	glut_med1_l/activation	glut_med2_l/activation	glut_med3_l/activation	glut_min1_l/activation	glut_min2_l/activation	glut_min3_l/activation	semimem_l/activation	semiten_l/activation	bifemlh_l/activation	bifemsh_l/activation	sar_l/activation	add_long_l/activation	add_brev_l/activation	add_mag1_l/activation	add_mag2_l/activation	add_mag3_l/activation	tfl_l/activation	pect_l/activation	grac_l/activation	glut_max1_l/activation	glut_max2_l/activation	glut_max3_l/activation	iliacus_l/activation	psoas_l/activation	quad_fem_l/activation	gem_l/activation	peri_l/activation	rect_fem_l/activation	vas_med_l/activation	vas_int_l/activation	vas_lat_l/activation	med_gas_l/activation	lat_gas_l/activation	soleus_l/activation	tib_post_l/activation	flex_dig_l/activation	flex_hal_l/activation	tib_ant_l/activation	per_brev_l/activation	per_long_l/activation	per_tert_l/activation	ext_dig_l/activation	ext_hal_l/activation	ercspn_l/activation	intobl_l/activation	extobl_l/activation	glut_med1_r/activation	glut_med2_r/activation	glut_med3_r/activation	glut_min1_r/activation	glut_min2_r/activation	glut_min3_r/activation	semimem_r/activation	semiten_r/activation	bifemlh_r/activation	bifemsh_r/activation	sar_r/activation	add_long_r/activation	add_brev_r/activation	add_mag1_r/activation	add_mag2_r/activation	add_mag3_r/activation	tfl_r/activation	pect_r/activation	grac_r/activation	glut_max1_r/activation	glut_max2_r/activation	glut_max3_r/activation	iliacus_r/activation	psoas_r/activation	quad_fem_r/activation	gem_r/activation	peri_r/activation	rect_fem_r/activation	vas_med_r/activation	vas_int_r/activation	vas_lat_r/activation	med_gas_r/activation	lat_gas_r/activation	soleus_r/activation	tib_post_r/activation	flex_dig_r/activation	flex_hal_r/activation	tib_ant_r/activation	per_brev_r/activation	per_long_r/activation	per_tert_r/activation	ext_dig_r/activation	ext_hal_r/activation	ercspn_r/activation	intobl_r/activation	extobl_r/activation	
          0.00000000	         -2.91241583	         -1.70131750	          6.28103852	          0.00000000	          0.85573212	         -0.00259147	        -17.99310851	         -1.74838132	          9.37055500	         31.86686681	          2.89975389	         -2.02682306	        -11.23576421	        -19.74672652	         -3.02439306	         -1.89669682	         13.11444365	         -3.65685767	         -1.73047839	          0.00786916	         27.13694855	          0.30111374	         -1.18186988	          0.19338251	         -1.79511792	          4.98873373	        -13.51123379	         16.37135555	         -9.80495970	        -13.78427603	          7.62576594	         37.06833652	         17.91932463	         86.51662706	         86.51662706	          0.23436501	          0.08711197	          0.05000005	          0.27361938	          0.18440090	          0.09312974	          0.05000115	          0.05000013	          0.05000010	          0.06867762	          0.09154632	          0.18918244	          0.11139007	          0.05000469	          0.05000171	          0.05000041	          0.29469497	          0.08993614	          0.05000055	          0.05000144	          0.05000098	          0.05000077	          0.32160324	          0.52600014	          0.05000013	          0.05000028	          0.05000006	          0.24483771	          0.10062605	          0.05000082	          0.08126730	          0.26653351	          0.34522511	          0.22977096	          0.18540761	          0.20784190	          0.26135580	          0.05000001	          0.09595072	          0.16837579	          0.05000006	          0.05000004	          0.05000006	          0.05000000	          0.05024719	          0.05000031	          0.05000144	          0.05000023	          0.05000028	          0.05000030	          0.05000029	          0.05000044	          0.05898397	          0.05898395	          0.24087959	          0.05000045	          0.05000041	          0.11423288	          0.19784574	          0.15564895	          0.17654351	          0.13155945	          0.05000040	          0.05897545	          0.05901847	          0.05000040	          0.12582698	          0.12367739	          0.05898408	          0.06175747	          0.22946854	          0.05000066	          0.05000010	          0.05000011	          0.16483512	          0.16785104	          0.13902262	          0.05898432	          0.05898405	          0.05898398	          0.05000000	          0.05000020	          0.05000040	          0.44416443	          0.26477935	          0.14875528	          0.43324338	          0.59990255	          0.05000015	          0.05000001	          0.09520897	          0.09739858	
          0.01078078	         -2.89545209	         -1.83936541	          6.55056713	          0.01682731	          0.85452457	         -0.00238480	        -17.56319946	         -2.06035359	          9.13256139	         31.19299764	          3.39163341	         -1.75787635	        -13.59693550	        -19.69848373	         -4.09522855	         -2.29533248	         14.19947318	         -4.42086595	         -2.17620698	          0.00998387	         27.84684630	          0.39943877	         -0.94622520	          0.46567923	         -1.86866819	          4.64069058	        -13.56285495	         16.66337319	        -10.88460883	        -13.78069577	          7.39033231	         38.14404067	         17.85247194	         86.51662706	         86.51662706	          0.19866836	          0.07384377	          0.05000032	          0.23194383	          0.15631440	          0.07894498	          0.05000125	          0.05000006	          0.05000010	          0.05821719	          0.07760277	          0.24670884	          0.27640615	          0.25382473	          0.05002199	          0.11000046	          0.24980957	          0.09684562	          0.05000049	          0.05000061	          0.05000041	          0.05000045	          0.27261913	          0.45218915	          0.05000021	          0.06958151	          0.05898436	          0.20754595	          0.08529985	          0.13476851	          0.10397311	          0.22593719	          0.29264309	          0.19477402	          0.15716776	          0.17618507	          0.22154814	          0.12833280	          0.08133632	          0.14273013	          0.05000010	          0.16102368	          0.05000042	          0.05673788	          0.06958221	          0.05610977	          0.05000002	          0.05000008	          0.06141424	          0.05000004	          0.05000006	          0.05000009	          0.05000002	          0.05000004	          0.20419073	          0.05000005	          0.05000085	          0.09683388	          0.16771152	          0.37469964	          0.28991341	          0.13369867	          0.05000010	          0.05000107	          0.05002935	          0.05898390	          0.14870753	          0.14514531	          0.05000012	          0.05235112	          0.50444497	          0.07722275	          0.05436963	          0.06958219	          0.27398661	          0.26687812	          0.22596685	          0.05000029	          0.05000006	          0.05000000	          0.05000045	          0.05898378	          0.05000020	          0.60409991	          0.22445021	          0.12609803	          0.50187513	          0.63493778	          0.25653325	          0.05000000	          0.08070748	          0.08256358	
          0.02156156	         -2.87427215	         -1.98492144	          6.79126706	          0.03382843	          0.85311493	         -0.00220111	        -17.02698878	         -2.35319263	          8.89011477	         30.34210292	          3.83947138	         -1.39921910	        -16.15507977	        -20.08903534	         -5.15064489	         -2.42322162	         15.19375134	         -5.25815644	         -2.55023606	         -0.14538582	         27.91011065	          0.46046045	         -0.69806560	          0.75096323	         -1.92844594	          4.22746754	        -13.62046399	         16.88055515	        -11.93248711	        -13.78679074	          7.25742529	         39.22032541	         17.72971496	         86.51662706	         86.51662706	          0.20730580	          0.06259648	          0.05000057	          0.19661599	          0.13250584	          0.06692072	          0.05000203	          0.05898243	          0.05898410	          0.05000003	          0.06578299	          0.21692558	          0.36077308	          0.21516423	          0.06959038	          0.09324631	          0.27409311	          0.08209557	          0.05898410	          0.05898295	          0.05898427	          0.05898447	          0.23109590	          0.40535126	          0.05898403	          0.05898371	          0.05000034	          0.17593416	          0.07230765	          0.11424163	          0.08813674	          0.19152418	          0.24806996	          0.16510755	          0.13322920	          0.14934997	          0.18780367	          0.23521958	          0.12212208	          0.13095609	          0.37793399	          0.25900926	          0.15354339	          0.09097021	          0.05898399	          0.05000003	          0.34118636	          0.35743116	          0.42744745	          0.19453684	          0.05000037	          0.39766748	          0.09080581	          0.10485843	          0.17897304	          0.05000003	          0.05000009	          0.08208500	          0.25665986	          0.31762836	          0.25085417	          0.17754507	          0.05000009	          0.06958166	          0.12506299	          0.05000004	          0.20980187	          0.16446100	          0.05575530	          0.05000014	          0.42761182	          0.06546082	          0.22349136	          0.05898397	          0.28553707	          0.28751971	          0.24225690	          0.05898398	          0.05898398	          0.05898398	          0.05000003	          0.05000009	          0.05000053	          0.56048085	          0.19026370	          0.10689176	          0.42543347	          0.58319584	          0.21746016	          0.05109919	          0.06841475	          0.06998814	
          0.03234235	         -2.85221730	         -2.13227393	          6.99948042	          0.05071670	          0.85163225	         -0.00201061	        -16.34291920	         -2.61895073	          8.65199181	         29.35174995	          4.26425160	         -1.02291715	        -18.94946580	        -20.42647621	         -6.06837791	         -2.31124703	         16.06071312	         -6.13628006	         -2.69104214	         -0.30447229	         26.78194363	          0.53382487	         -0.46276301	          1.03812720	         -1.97678733	          3.80411061	        -13.67896084	         17.04409094	        -12.88053704	        -13.79555459	          7.24617071	         40.24407660	         17.50767687	         86.51662706	         86.51662706	          0.17573069	          0.05306229	          0.05000002	          0.18561025	          0.11232363	          0.05672794	          0.05768041	          0.05000008	          0.05000019	          0.05000007	          0.05607761	          0.19507994	          0.30582296	          0.18239213	          0.05899103	          0.07904382	          0.32504179	          0.06959165	          0.05000027	          0.05000058	          0.05000054	          0.05000050	          0.19589719	          0.36945380	          0.05000007	          0.05000023	          0.05000009	          0.15898098	          0.06129434	          0.09684126	          0.07471246	          0.16235270	          0.21028587	          0.13995964	          0.11293684	          0.12660222	          0.15919896	          0.20696347	          0.11070398	          0.11320810	          0.32037004	          0.27585329	          0.13015690	          0.12591480	          0.05000001	          0.05000001	          0.43483285	          0.53374691	          0.59492519	          0.30837687	          0.39451277	          0.39080876	          0.07697501	          0.10965117	          0.15171325	          0.06958216	          0.05000020	          0.06958246	          0.21756743	          0.26924971	          0.21264638	          0.18347963	          0.05000007	          0.05898363	          0.10601447	          0.31349274	          0.26941388	          0.18741810	          0.05000001	          0.05000001	          0.36248132	          0.05898263	          0.18945164	          0.05000000	          0.35316737	          0.35966082	          0.30165326	          0.05000000	          0.05000001	          0.05000000	          0.14577305	          0.05898471	          0.05000054	          0.70027075	          0.16128421	          0.09061084	          0.36543182	          0.60431338	          0.44075666	          0.06901848	          0.06958219	          0.05932809	
